#!OML:ASF F:\VICON\USERDATA\INSTALL\rory3\rory3.ASF
:FULLY-SPECIFIED
:DEGREES
53
root 0.32601507768028387 17.782608989659682 23.27660642418514 2.054202164280732 4.259792262720792 1.0763215580800143
lfemur 7.399132018998248 -2.8343451099133414 -27.33797905371157
ltibia 24.361828962777768
lfoot 0.7563103319705524 -4.876167316440043
ltoes -7.867293717736276
rfemur -33.97826685181888 1.401212846211609 22.60278203517315
rtibia 41.550923462399
rfoot 8.750597608047306 -15.32251786674831
rtoes 1.5607106551742846
lowerback 11.905565177454907 -1.006765113036225 -2.8826023530349643
upperback -0.7370521645023399 -1.7196228937481361 1.1893398962175141
thorax -7.0074887487611965 -0.7213301706948072 4.402222280940619
lowerneck -18.604995575014467 -2.9061648638061133 -4.068004426008622
upperneck 18.10352967500563 -3.38762035343703 2.451029688390749
head 8.675887128749938 -1.4874647788949207 0.9186165985437794
lclavicle -2.263817859771106e-15 6.832291905201359e-16
lhumerus -27.648932718927988 -12.351726160592092 89.10748206843218
lradius 72.13474286810921
lwrist 21.05575656549455
lhand -27.383331698151352 13.366118447927207
lfingers 7.125019999999999
lthumb -0.8724641234234065 43.0256931758087
rclavicle -2.2609105160291426e-15 6.852860719121051e-16
rhumerus -42.3811275557184 -6.525438914654671 -85.5948829288994
rradius 64.32245117066265
rwrist -1.1491212742632226
rhand -16.744983117885646 31.03335955125744
rfingers 7.125019999999999
rthumb 9.064188980768934 1.396032160434542
54
root 0.26309917117724424 17.706535103885642 24.216344852126312 2.7488021277651713 4.66535966102935 0.9123347408062048
lfemur 11.383960068390394 -3.009051288259127 -27.053759576813132
ltibia 21.282121197839334
lfoot 2.324611557739677 -7.178615493558278
ltoes -9.454068300577019
rfemur -33.04774595826851 3.6911091476607854 22.17045974613677
rtibia 33.92519112010436
rfoot 6.210131248444501 -17.496022214641712
rtoes -2.438951855748398
lowerback 11.507976290267479 -1.1600995320824419 -2.9267756229646764
upperback -0.954347740060181 -1.9756063209925054 1.4384712477147215
thorax -6.874894578844422 -0.8190706716655818 4.698731040635417
lowerneck -18.791786836226045 -2.8526502572782864 -3.984090096258916
upperneck 18.057316241898615 -3.301959165029411 2.3387237522279882
head 8.69762948391418 -1.4508113135616463 0.8817984175134653
lclavicle -2.2646229247150042e-15 6.826614703589169e-16
lhumerus -26.199300178647167 -12.368363401394555 88.83526557856153
lradius 74.08378760475398
lwrist 21.660583090526657
lhand -27.328374773664894 12.895431919251076
lfingers 7.125019999999999
lthumb -0.9651165919337912 42.54157866916956
rclavicle -2.261096680406239e-15 6.851555734152036e-16
rhumerus -42.65875834080423 -7.791152236819279 -84.77396467670552
rradius 62.65902028901161
rwrist 0.21201608697019125
rhand -16.79156728604974 31.006507881911936
rfingers 7.125019999999999
rthumb 9.09270404917372 1.499580989992571
55
root 0.19146737701180416 17.53130001526518 25.18138933075052 3.0838456624877817 5.15382835216295 1.0289849865323886
lfemur 13.87653476084379 -4.087586727751502 -26.91078862059095
ltibia 22.294172478946496
lfoot 3.225218256881242 -9.458619402155165
ltoes -9.03769496925427
rfemur -32.204393479966726 3.721388402450593 22.61292484082054
rtibia 30.90706730398411
rfoot 2.693970894001355 -16.441781481870905
rtoes -4.118864744597331
lowerback 11.512862092052423 -1.2784457071203743 -3.049057702314724
upperback -1.0365995388835263 -2.16216469332872 1.6186794966442108
thorax -6.885402065714653 -0.894911361326713 4.94725270859174
lowerneck -18.885390103542615 -2.803360922116869 -3.920630882722883
upperneck 17.95656955390839 -3.2209909219095576 2.244857778525965
head 8.681245215197158 -1.4124826880625774 0.8674772777657629
lclavicle -2.264084785052888e-15 6.830393262122283e-16
lhumerus -25.561935839078995 -12.166276727283085 88.86185200138496
lradius 75.33996519599647
lwrist 21.899063515869873
lhand -27.502436749152658 12.377555909528327
lfingers 7.125019999999999
lthumb -1.0881490942116134 42.1123946169997
rclavicle -2.2612965972403773e-15 6.850153911793487e-16
rhumerus -42.636300468302316 -8.721259362712102 -84.15551492438858
rradius 61.163496710858254
rwrist 1.5879849472245224
rhand -16.92061580419142 31.02440282703627
rfingers 7.125019999999999
rthumb 9.019137804193234 1.546837612642394
56
root 0.11541284784833321 17.376097157861775 26.1125126392661 2.8779791053765336 5.0599189626915 0.5934106478073367
lfemur 14.935758117376832 -5.308646003401343 -26.2651669613217
ltibia 27.31689983852808
lfoot 4.982268992785015 -11.327405753671442
ltoes -8.226137706330972
rfemur -31.933633628665426 2.2181794599067737 24.59298407209911
rtibia 32.85240166662183
rfoot 1.4860197555860006 -12.601589483232615
rtoes -2.405095217307492
lowerback 11.771738399974963 -1.23450083112612 -2.6090237807255114
upperback -0.942160933512227 -2.0349314611311544 1.967379026094393
thorax -6.924130906546982 -0.8455375678620165 4.89849699757541
lowerneck -18.926208810157853 -2.717524328553475 -3.8726971704955986
upperneck 18.0264284716435 -3.085429260519395 2.0574417381644508
head 8.721638737859394 -1.37016958219907 0.8239309520022514
lclavicle -2.2633241021807534e-15 6.835726521944118e-16
lhumerus -26.12745367821044 -11.391618278442621 89.09682238665978
lradius 75.89312749390845
lwrist 22.014703131860376
lhand -27.99298845317061 11.925947792663566
lfingers 7.125019999999999
lthumb -1.5300504556235028 41.61277156297138
rclavicle -2.2614958957016868e-15 6.848757035181628e-16
rhumerus -42.40578176794012 -9.686494202919105 -83.41865845396563
rradius 59.857970173346196
rwrist 3.425240318041818
rhand -17.062178321188807 31.009180827041956
rfingers 7.125019999999999
rthumb 8.922371456102702 1.390176002161737
57
root 0.02383989561455653 17.361737314957427 27.17370264177282 2.319333810410808 4.96182350630623 -0.3176362186139081
lfemur 13.353828557613333 -5.522565424040325 -24.640672393236347
ltibia 36.573428156036954
lfoot 9.310529650583238 -13.412680900438723
ltoes -5.54526505986148
rfemur -30.805202966940556 1.5891263297093774 26.638614625897603
rtibia 35.44154102664753
rfoot 1.9842519340038844 -9.0944944097029
rtoes 2.859355933775513
lowerback 11.970458318874277 -1.2167597380590938 -1.7117924322357119
upperback -0.9116682973275967 -1.88971517517444 2.4202688187683408
thorax -7.0362171775853435 -0.8030803520645968 4.699736505058862
lowerneck -18.763678194127063 -2.644904544587181 -3.891910639028646
upperneck 18.22112999597981 -2.9417002376760326 1.872715175151996
head 8.764866758428829 -1.3308826103584854 0.8031067484127536
lclavicle -2.2636840509513554e-15 6.833190179819932e-16
lhumerus -28.281220359939066 -10.134989474655995 89.5503431487482
lradius 75.55775684968161
lwrist 21.838033359277514
lhand -28.101932295075308 12.149287364141717
lfingers 7.125019999999999
lthumb -1.6423456167469423 41.66151145565288
rclavicle -2.2608845709938122e-15 6.853043515421539e-16
rhumerus -42.4326087426262 -10.541720984293368 -82.63603992160851
rradius 59.03109671642889
rwrist 5.0593502448188765
rhand -17.176237607083625 30.974400918838352
rfingers 7.125019999999999
rthumb 8.889611504677898 1.3719770011688237
58
root -0.04674957973339054 17.623102557638063 28.12085182105143 1.8507296766269208 4.44674553792519 -2.1058330099233213
lfemur 8.335118439699318 -4.313740147659626 -21.469464000656316
ltibia 48.530903385294934
lfoot 17.873528160411635 -14.19196093188573
ltoes 1.6484007543412176
rfemur -27.886388398790064 1.8621285647639645 29.136180982151032
rtibia 35.864332280580584
rfoot 1.5891646102051622 -5.807583183700544
rtoes 8.951653635226108
lowerback 12.110494269381745 -1.1072548302404235 0.0680916807778289
upperback -1.0609141736149883 -1.4263637094859791 3.090883210401865
thorax -7.296116438835684 -0.6310865189401442 3.959652178208783
lowerneck -18.406767796973917 -2.630501433693913 -3.9026978586600336
upperneck 18.532486378353592 -2.860551022502089 1.718903178430171
head 8.86857128976842 -1.3119954229869792 0.7781603404506202
lclavicle -2.2648926421170667e-15 6.824694546933602e-16
lhumerus -31.795339410716977 -8.848888252404254 90.0938831253689
lradius 74.6127211090357
lwrist 21.39689264777298
lhand -27.530614510100097 12.275050190728743
lfingers 7.125019999999999
lthumb -1.2258132362875582 41.66570898718129
rclavicle -2.2614115906201148e-15 6.849348048347372e-16
rhumerus -42.450946846820706 -10.871840742512514 -82.22447071311758
rradius 58.96468309644373
rwrist 5.248080475986741
rhand -17.084382373026514 30.98718329093737
rfingers 7.125019999999999
rthumb 9.047443142947571 1.1725965187290959
59
root -0.1200469349734082 17.70956465444328 29.180827764491404 1.3341596294561946 4.154941658214184 -2.8929067467877787
lfemur 1.5470147703626669 -2.520893543447216 -19.025584532036387
ltibia 61.78878337811363
lfoot 19.217386646742682 -14.784359379456847
ltoes 1.9632747039398044
rfemur -24.11164051494992 1.5774508917773509 30.7734506143053
rtibia 36.403175869716314
rfoot -0.22571898331689444 -3.746750655343261
rtoes 12.65985271440037
lowerback 12.552655896991558 -0.9295104238264793 1.04892527854072
upperback -0.9904052732555044 -1.0156188224614353 3.3296863419374194
thorax -7.5746066278875475 -0.4937814088109582 3.4071738407152647
lowerneck -17.98203646958855 -2.6687626615075946 -3.846215944718412
upperneck 18.498829564814628 -2.957251067488032 1.8199283445308891
head 8.793227182473634 -1.3461073262586534 0.8244007290430289
lclavicle -2.267745723368146e-15 6.804675132157759e-16
lhumerus -35.48144479334354 -8.413162207546343 90.78252545024783
lradius 73.49102092065593
lwrist 21.196854354929666
lhand -26.819691729510577 12.346177009058161
lfingers 7.125019999999999
lthumb -0.4824820376642867 41.89527127647192
rclavicle -2.2612546101415187e-15 6.850447822603168e-16
rhumerus -41.70027727098723 -9.73549382751882 -82.94060638302517
rradius 59.79075780467547
rwrist 4.134424388059941
rhand -16.9357102153674 31.012970518724792
rfingers 7.125019999999999
rthumb 9.203587965984322 1.2094077215819963
